# xmcd
#
# Track frame offsets: 
#        183
#        12610
#        20360
#        29355
#        52953
#        65420
#        76388
#        88738
#        102285
#        114730
#        124868
#        138695
#        151313
#        164983
#        177583
#        189425
#        200058
#        211958
#        224090
#        238010
#        249718
#        259200
#
# Disc length: 3604 seconds
#
# Revision: 0
# Processed by: cddbd v1.5.2PL0 Copyright (c) Steve Scherf et al.
# Submitted via: ExactAudioCopyFreeDBPlugin 1.0
#
DISCID=540e1216
DTITLE=Ralph Willis ea - Jumping at Jubilee
DYEAR=1956
DGENRE=Blues
TTITLE0=Freddie Kohlmann Orchestra - Hole in the ground
TTITLE1=Cousin Joe - You'll never get nothing without trying
TTITLE2=Cousin Joe - Ramblin' woman
TTITLE3=Jessie Powell - Can't help myself pts 1 and 2
TTITLE4=Jessie Powell - I'm all alone (take 5)
TTITLE5=Piney brown - Don't pass me by (take 8)
TTITLE6=Piney brown - Battle with the bottle (take 1)
TTITLE7=Piney brown - 3D loving (take 2)
TTITLE8=Piney brown - You bring out the wolf in me
TTITLE9=Danny cobb - Ay Lah Bah
TTITLE10=Ralph Willis - Everyday I weep and moan
TTITLE11=Ralph Willis - Somebody's got to go
TTITLE12=Ralph Willis - Blues blues blues
TTITLE13=Ralph Willis - I got a letter
TTITLE14=Ralph Willis - Too late to scream and shout
TTITLE15=Ralph Willis - Hoodoo man
TTITLE16=Ralph Willis - Income tax blues
TTITLE17=Ralph Willis - bed tick
TTITLE18=La Verne Ray - Yes he did
TTITLE19=La Verne Ray - Rock on the bop
TTITLE20=La Verne Ray - Drunk, that's all
TTITLE21=La Verne Ray - Rock and roll
EXTD=
EXTT0=
EXTT1=
EXTT2=
EXTT3=
EXTT4=
EXTT5=
EXTT6=
EXTT7=
EXTT8=
EXTT9=
EXTT10=
EXTT11=
EXTT12=
EXTT13=
EXTT14=
EXTT15=
EXTT16=
EXTT17=
EXTT18=
EXTT19=
EXTT20=
EXTT21=
PLAYORDER=
